# xmcd
#
# Track frame offsets:
#	150
#	12701
#	26439
#	38393
#	50306
#	62805
#	74797
#	87866
#	101219
#	113538
#	126263
#	136287
#	148430
#	160465
#	173178
#	186249
#	200838
#	214988
#
# Disc length: 3045 seconds
#
# Revision: 2
# Processed by: cddbd v1.4PL0 Copyright (c) Steve Scherf et al.
# Submitted via: audiograbber 1.81.03
#
DISCID=180be312
DTITLE=Various Artist - Guitar In My Hand - CD 4
DYEAR=2001
DGENRE=Blues
TTITLE0=Amos Milburn - Tears Tears Tears
TTITLE1=Robert Nighthawk - Sweet Black Angel
TTITLE2=Smokey Hogg - Great Big Mama
TTITLE3=Floyd Dixon - I Want A Little Girl
TTITLE4=Bus Moten and His Men - That Did It
TTITLE5=Joe Turner - Rock O Gibraltar
TTITLE6=John Lee Hooker - Well I Got To Leave
TTITLE7=Walter Brown - Let's Love Awhile
TTITLE8=Jay McShann - Scotty's
TTITLE9=Bus Moten and His Men - Gone
TTITLE10=Julia Lee and Her Boy Friends - My Man Stands Out
TTITLE11=Amos Milburn - Everything I Do Is Wrong
TTITLE12=Tomy Douglas - Jackson's Country Romp
TTITLE13=Sonny Terry - Screamin' And Cryin' Blues
TTITLE14=John Lee Hooker - Lord What More Can I Do
TTITLE15=Floyd Dixon - Telephone Blues
TTITLE16=Forrest Sykes - Tonky Boogie
TTITLE17=Unknown - Unknow
EXTD=
EXTT0=
EXTT1=
EXTT2=
EXTT3=
EXTT4=
EXTT5=
EXTT6=
EXTT7=
EXTT8=
EXTT9=
EXTT10=
EXTT11=
EXTT12=
EXTT13=
EXTT14=
EXTT15=
EXTT16=
EXTT17=
PLAYORDER=
